<svg width="33" height="33" viewBox="0 0 33 33" fill="none" xmlns="http://www.w3.org/2000/svg">
<path d="M9.625 10.6562C9.625 12.3649 11.0101 13.75 12.7188 13.75V15.8125C9.87103 15.8125 7.5625 13.504 7.5625 10.6562H9.625ZM12.7188 13.75C14.4274 13.75 15.8125 12.3649 15.8125 10.6562H17.875C17.875 13.504 15.5665 15.8125 12.7188 15.8125V13.75ZM15.8125 10.6562C15.8125 8.94762 14.4274 7.5625 12.7188 7.5625V5.5C15.5665 5.5 17.875 7.80853 17.875 10.6562H15.8125ZM12.7188 7.5625C11.0101 7.5625 9.625 8.94762 9.625 10.6562H7.5625C7.5625 7.80853 9.87103 5.5 12.7188 5.5V7.5625ZM16.8438 19.9375H8.59375V17.875H16.8438V19.9375ZM8.59375 26.125H16.8438V28.1875H8.59375V26.125ZM16.8438 26.125C18.5524 26.125 19.9375 24.7399 19.9375 23.0312H22C22 25.879 19.6915 28.1875 16.8438 28.1875V26.125ZM5.5 23.0312C5.5 24.7399 6.88512 26.125 8.59375 26.125V28.1875C5.74603 28.1875 3.4375 25.879 3.4375 23.0312H5.5ZM8.59375 19.9375C6.88512 19.9375 5.5 21.3226 5.5 23.0312H3.4375C3.4375 20.1835 5.74603 17.875 8.59375 17.875V19.9375ZM16.8438 17.875C19.6915 17.875 22 20.1835 22 23.0312H19.9375C19.9375 21.3226 18.5524 19.9375 16.8438 19.9375V17.875Z" fill="#FF9900"/>
<path d="M18.5596 14.2844C18.7764 13.936 19.1834 13.75 19.5938 13.75C21.3024 13.75 22.6875 12.3649 22.6875 10.6562C22.6875 8.94762 21.3024 7.5625 19.5938 7.5625C19.1834 7.5625 18.7764 7.3765 18.5596 7.0281C18.55 7.01269 18.5403 6.99733 18.5306 6.982C18.1695 6.41205 18.3525 5.60505 19.0231 5.53122C19.2105 5.51059 19.4009 5.5 19.5938 5.5C22.4415 5.5 24.75 7.80853 24.75 10.6562C24.75 13.504 22.4415 15.8125 19.5938 15.8125C19.4009 15.8125 19.2105 15.8019 19.0231 15.7813C18.3525 15.7074 18.1695 14.9005 18.5306 14.3305C18.5403 14.3152 18.55 14.2998 18.5596 14.2844Z" fill="#FF9900"/>
<path d="M22.7449 25.1857C22.9009 24.9253 23.1765 24.75 23.4801 24.75H23.7188C25.4274 24.75 26.8125 23.3649 26.8125 21.6562C26.8125 19.9476 25.4274 18.5625 23.7188 18.5625H23.4801C23.1765 18.5625 22.9009 18.3872 22.7449 18.1268C22.3638 17.4911 22.7773 16.5 23.5184 16.5H23.7188C26.5665 16.5 28.875 18.8085 28.875 21.6562C28.875 24.504 26.5665 26.8125 23.7188 26.8125H23.5184C22.7773 26.8125 22.3638 25.8214 22.7449 25.1857Z" fill="#FF9900"/>
</svg>
