<svg width="27" height="27" viewBox="0 0 27 27" fill="none" xmlns="http://www.w3.org/2000/svg">
<path d="M4.93624 23.9211L5.37709 23.2017L4.93624 23.9211ZM3.07919 22.0641L3.79861 21.6232L3.07919 22.0641ZM23.9214 22.0641L23.202 21.6232L23.9214 22.0641ZM22.0643 23.9211L21.6235 23.2017L22.0643 23.9211ZM22.0643 6.4539L21.6235 7.17331L22.0643 6.4539ZM23.9214 8.31095L23.202 8.7518L23.9214 8.31095ZM4.93624 6.4539L5.37709 7.17331L4.93624 6.4539ZM3.07919 8.31095L3.79861 8.7518L3.07919 8.31095ZM20.7867 2.86476L21.3956 2.28069V2.28069L20.7867 2.86476ZM4.32504 3.25214L4.83449 3.92473L4.32504 3.25214ZM3.21154 4.413L3.90378 4.89542L3.21154 4.413ZM21.3753 5.77161H22.2191L22.219 5.76744L21.3753 5.77161ZM20.6594 15.3154C21.1254 15.3154 21.5031 14.9376 21.5031 14.4716C21.5031 14.0056 21.1254 13.6279 20.6594 13.6279V15.3154ZM17.5912 13.6279C17.1252 13.6279 16.7475 14.0056 16.7475 14.4716C16.7475 14.9376 17.1252 15.3154 17.5912 15.3154V13.6279ZM11.8128 6.46875H15.1878V4.78125H11.8128V6.46875ZM15.1878 23.9062H11.8128V25.5938H15.1878V23.9062ZM11.8128 23.9062C9.95515 23.9062 8.62117 23.9054 7.58064 23.8064C6.55267 23.7087 5.89856 23.5212 5.37709 23.2017L4.49538 24.6405C5.32655 25.1499 6.26942 25.3769 7.42091 25.4863C8.55985 25.5946 9.98782 25.5938 11.8128 25.5938V23.9062ZM1.40654 15.1875C1.40654 17.0125 1.40565 18.4404 1.51394 19.5794C1.62343 20.7309 1.85043 21.6737 2.35978 22.5049L3.79861 21.6232C3.47905 21.1017 3.29161 20.4476 3.19387 19.4197C3.09493 18.3791 3.09404 17.0451 3.09404 15.1875H1.40654ZM5.37709 23.2017C4.73375 22.8074 4.19285 22.2665 3.79861 21.6232L2.35978 22.5049C2.89316 23.3753 3.62497 24.1071 4.49538 24.6405L5.37709 23.2017ZM15.1878 25.5938C17.0128 25.5938 18.4407 25.5946 19.5797 25.4863C20.7312 25.3769 21.674 25.1499 22.5052 24.6405L21.6235 23.2017C21.102 23.5212 20.4479 23.7087 19.4199 23.8064C18.3794 23.9054 17.0454 23.9062 15.1878 23.9062V25.5938ZM23.202 21.6232C22.8077 22.2665 22.2668 22.8074 21.6235 23.2017L22.5052 24.6405C23.3756 24.1071 24.1074 23.3753 24.6408 22.5049L23.202 21.6232ZM21.6235 7.17331C22.2668 7.56756 22.8077 8.10846 23.202 8.7518L24.6408 7.87009C24.1074 6.99968 23.3756 6.26787 22.5052 5.73448L21.6235 7.17331ZM11.8128 4.78125C9.98782 4.78125 8.55985 4.78036 7.42091 4.88865C6.26942 4.99814 5.32655 5.22514 4.49538 5.73448L5.37709 7.17331C5.89856 6.85376 6.55267 6.66631 7.58064 6.56857C8.62117 6.46964 9.95515 6.46875 11.8128 6.46875V4.78125ZM3.09404 15.1875C3.09404 13.3299 3.09493 11.9959 3.19387 10.9553C3.29161 9.92738 3.47905 9.27327 3.79861 8.7518L2.35978 7.87009C1.85043 8.70126 1.62343 9.64413 1.51394 10.7956C1.40565 11.9346 1.40654 13.3625 1.40654 15.1875H3.09404ZM4.49538 5.73448C3.62497 6.26787 2.89316 6.99968 2.35978 7.87009L3.79861 8.7518C4.19285 8.10846 4.73375 7.56756 5.37709 7.17331L4.49538 5.73448ZM11.31 3.09375H17.3498V1.40625H11.31V3.09375ZM17.3498 3.09375C18.3237 3.09375 18.9657 3.09569 19.4418 3.16243C19.8899 3.22523 20.0642 3.33044 20.1777 3.44883L21.3956 2.28069C20.9195 1.78432 20.3244 1.58214 19.676 1.49126C19.0556 1.40431 18.274 1.40625 17.3498 1.40625V3.09375ZM11.31 1.40625C9.44227 1.40625 7.97085 1.40499 6.80348 1.53685C5.61816 1.67073 4.64619 1.95041 3.81559 2.57955L4.83449 3.92473C5.32693 3.55173 5.96014 3.33034 6.99288 3.21369C8.04358 3.09501 9.40311 3.09375 11.31 3.09375V1.40625ZM3.09404 11.6951C3.09404 9.70946 3.09511 8.28527 3.20968 7.18282C3.32281 6.09417 3.53897 5.41888 3.90378 4.89542L2.51931 3.93058C1.92286 4.78644 1.65839 5.78461 1.53122 7.00839C1.40547 8.21835 1.40654 9.74554 1.40654 11.6951H3.09404ZM3.81559 2.57955C3.31686 2.95731 2.87967 3.41349 2.51931 3.93058L3.90378 4.89542C4.1643 4.52158 4.47864 4.19426 4.83449 3.92473L3.81559 2.57955ZM22.219 5.76744C22.2153 5.0062 22.199 4.34653 22.1037 3.79965C22.0046 3.23131 21.8088 2.71153 21.3956 2.28069L20.1777 3.44883C20.2828 3.55832 20.3775 3.72361 20.4413 4.08944C20.5088 4.47673 20.5277 5.00032 20.5316 5.77578L22.219 5.76744ZM1.40654 11.6951C1.40654 12.7927 1.38386 13.7972 1.40683 14.6478L3.09372 14.6022C3.07149 13.7792 3.09404 12.852 3.09404 11.6951H1.40654ZM24.1878 16.696H17.5912V18.3835H24.1878V16.696ZM13.6793 14.4716C13.6793 16.6321 15.4307 18.3835 17.5912 18.3835V16.696C16.3627 16.696 15.3668 15.7001 15.3668 14.4716H13.6793ZM15.3668 14.4716C15.3668 13.2431 16.3627 12.2472 17.5912 12.2472V10.5597C15.4307 10.5597 13.6793 12.3111 13.6793 14.4716H15.3668ZM20.6594 13.6279H17.5912V15.3154H20.6594V13.6279ZM15.1878 6.46875C16.7455 6.46875 17.9383 6.46911 18.9042 6.52872C19.8692 6.58826 20.5439 6.70434 21.0757 6.90632L21.6749 5.32875C20.9098 5.03819 20.0387 4.90801 19.0082 4.84442C17.9786 4.78089 16.7261 4.78125 15.1878 4.78125V6.46875ZM21.0757 6.90632C21.2749 6.98196 21.4552 7.07018 21.6235 7.17331L22.5052 5.73448C22.2426 5.57355 21.9671 5.43975 21.6749 5.32875L21.0757 6.90632ZM20.5315 5.77161V6.11754H22.219V5.77161H20.5315ZM17.5912 12.2472H24.6878V10.5597H17.5912V12.2472ZM25.594 15.1875C25.594 13.6412 25.5944 12.3837 25.5299 11.3508L23.8456 11.4561C23.9062 12.4244 23.9065 13.6215 23.9065 15.1875H25.594ZM25.5299 11.3508C25.4416 9.93911 25.2281 8.82843 24.6408 7.87009L23.202 8.7518C23.572 9.35561 23.7629 10.133 23.8456 11.4561L25.5299 11.3508ZM23.9065 15.1875C23.9065 16.0735 23.9065 16.8437 23.8952 17.5258L25.5825 17.5538C25.5941 16.8549 25.594 16.0694 25.594 15.1875H23.9065ZM23.8952 17.5258C23.8586 19.7291 23.6966 20.816 23.202 21.6232L24.6408 22.5049C25.406 21.2562 25.5465 19.7227 25.5825 17.5538L23.8952 17.5258ZM24.1878 18.3835H24.7388V16.696H24.1878V18.3835Z" fill="#FF9900"/>
</svg>
