<svg width="32" height="32" viewBox="0 0 32 32" fill="none" xmlns="http://www.w3.org/2000/svg">
<path d="M5.33334 9.33331C5.33334 8.0908 5.33334 7.46955 5.53632 6.97949C5.80697 6.32608 6.32611 5.80695 6.97951 5.5363C7.46957 5.33331 8.09083 5.33331 9.33334 5.33331C10.5758 5.33331 11.1971 5.33331 11.6872 5.5363C12.3406 5.80695 12.8597 6.32608 13.1303 6.97949C13.3333 7.46955 13.3333 8.0908 13.3333 9.33331C13.3333 10.5758 13.3333 11.1971 13.1303 11.6871C12.8597 12.3405 12.3406 12.8597 11.6872 13.1303C11.1971 13.3333 10.5758 13.3333 9.33334 13.3333C8.09083 13.3333 7.46957 13.3333 6.97951 13.1303C6.32611 12.8597 5.80697 12.3405 5.53632 11.6871C5.33334 11.1971 5.33334 10.5758 5.33334 9.33331Z" stroke="#5B5B5B" stroke-width="2"/>
<path d="M18.6667 9.33331C18.6667 8.0908 18.6667 7.46955 18.8697 6.97949C19.1403 6.32608 19.6594 5.80695 20.3128 5.5363C20.8029 5.33331 21.4242 5.33331 22.6667 5.33331C23.9092 5.33331 24.5304 5.33331 25.0205 5.5363C25.6739 5.80695 26.193 6.32608 26.4637 6.97949C26.6667 7.46955 26.6667 8.0908 26.6667 9.33331C26.6667 10.5758 26.6667 11.1971 26.4637 11.6871C26.193 12.3405 25.6739 12.8597 25.0205 13.1303C24.5304 13.3333 23.9092 13.3333 22.6667 13.3333C21.4242 13.3333 20.8029 13.3333 20.3128 13.1303C19.6594 12.8597 19.1403 12.3405 18.8697 11.6871C18.6667 11.1971 18.6667 10.5758 18.6667 9.33331Z" stroke="#5B5B5B" stroke-width="2"/>
<path d="M5.33334 22.6666C5.33334 21.4241 5.33334 20.8029 5.53632 20.3128C5.80697 19.6594 6.32611 19.1403 6.97951 18.8696C7.46957 18.6666 8.09083 18.6666 9.33334 18.6666C10.5758 18.6666 11.1971 18.6666 11.6872 18.8696C12.3406 19.1403 12.8597 19.6594 13.1303 20.3128C13.3333 20.8029 13.3333 21.4241 13.3333 22.6666C13.3333 23.9092 13.3333 24.5304 13.1303 25.0205C12.8597 25.6739 12.3406 26.193 11.6872 26.4637C11.1971 26.6666 10.5758 26.6666 9.33334 26.6666C8.09083 26.6666 7.46957 26.6666 6.97951 26.4637C6.32611 26.193 5.80697 25.6739 5.53632 25.0205C5.33334 24.5304 5.33334 23.9092 5.33334 22.6666Z" stroke="#5B5B5B" stroke-width="2"/>
<path d="M18.6667 22.6666C18.6667 21.4241 18.6667 20.8029 18.8697 20.3128C19.1403 19.6594 19.6594 19.1403 20.3128 18.8696C20.8029 18.6666 21.4242 18.6666 22.6667 18.6666C23.9092 18.6666 24.5304 18.6666 25.0205 18.8696C25.6739 19.1403 26.193 19.6594 26.4637 20.3128C26.6667 20.8029 26.6667 21.4241 26.6667 22.6666C26.6667 23.9092 26.6667 24.5304 26.4637 25.0205C26.193 25.6739 25.6739 26.193 25.0205 26.4637C24.5304 26.6666 23.9092 26.6666 22.6667 26.6666C21.4242 26.6666 20.8029 26.6666 20.3128 26.4637C19.6594 26.193 19.1403 25.6739 18.8697 25.0205C18.6667 24.5304 18.6667 23.9092 18.6667 22.6666Z" stroke="#5B5B5B" stroke-width="2"/>
</svg>
