<svg width="29" height="29" viewBox="0 0 29 29" fill="none" xmlns="http://www.w3.org/2000/svg">
<path d="M10.875 24.7708L14.1045 19.0571C14.2612 18.7798 14.3988 18.5364 14.522 18.321M14.522 18.321C14.9037 17.6534 15.1465 17.2557 15.389 16.9573C17.3973 14.4861 20.9789 13.9979 23.5753 15.8414C23.9873 16.134 24.4456 16.5915 25.3569 17.5027M14.522 18.321L13.8958 18.125C12.4512 17.8361 11.7289 17.6916 11.066 17.7057C9.2919 17.7434 7.62405 18.5591 6.50511 19.9364C6.08699 20.451 5.75758 21.1098 5.09874 22.4275L4.96604 22.6929L4.81974 22.9401M25.3569 17.5027C25.375 16.6273 25.375 15.6347 25.375 14.5C25.375 9.96907 25.375 7.70361 24.2211 6.11546C23.8485 5.60256 23.3974 5.1515 22.8845 4.77886C21.2964 3.625 19.0309 3.625 14.5 3.625C9.96907 3.625 7.70361 3.625 6.11546 4.77886C5.60256 5.1515 5.1515 5.60256 4.77886 6.11546C3.625 7.70361 3.625 9.96907 3.625 14.5C3.625 19.0309 3.625 21.2964 4.77886 22.8845C4.79238 22.9031 4.80601 22.9217 4.81974 22.9401M25.3569 17.5027C25.3026 20.1231 25.086 21.6941 24.2211 22.8845C23.8485 23.3974 23.3974 23.8485 22.8845 24.2211C21.2964 25.375 19.0309 25.375 14.5 25.375C9.96907 25.375 7.70361 25.375 6.11546 24.2211C5.62117 23.862 5.18432 23.4301 4.81974 22.9401M10.875 10.875C10.875 12.2097 11.957 13.2917 13.2917 13.2917C14.6264 13.2917 15.7083 12.2097 15.7083 10.875C15.7083 9.54031 14.6264 8.45833 13.2917 8.45833C11.957 8.45833 10.875 9.54031 10.875 10.875Z" stroke="#5B5B5B" stroke-width="1.8125" stroke-linecap="round"/>
</svg>
