<svg width="29" height="29" viewBox="0 0 29 29" fill="none" xmlns="http://www.w3.org/2000/svg">
<path d="M6.04102 21.7501H6.43261C8.45266 21.7501 10.3391 20.7405 11.4596 19.0597L17.5391 9.94043C18.6596 8.25965 20.546 7.25008 22.5661 7.25008H22.9577H23.8837M6.04102 7.25008H6.43261C8.45266 7.25008 10.3391 8.25965 11.4596 9.94043L14.4993 14.5001L17.5391 19.0597C18.6596 20.7405 20.546 21.7501 22.5661 21.7501H22.9577H23.8837M22.0514 4.83341L23.5325 6.31446C23.7905 6.57247 23.9061 6.91565 23.8837 7.25008M21.7493 9.5157L23.4516 8.09715C23.7172 7.87586 23.8624 7.56689 23.8837 7.25008M22.0514 19.3334L23.5325 20.8145C23.7905 21.0725 23.9061 21.4156 23.8837 21.7501M21.7493 24.0157L23.4516 22.5971C23.7172 22.3759 23.8624 22.0669 23.8837 21.7501" stroke="#FF9900" stroke-width="1.8125" stroke-linecap="round"/>
</svg>
