<svg width="29" height="29" viewBox="0 0 29 29" fill="none" xmlns="http://www.w3.org/2000/svg">
<path d="M6.04138 21.7501H6.43298C8.45303 21.7501 10.3394 20.7405 11.46 19.0597L17.5395 9.94043C18.66 8.25965 20.5464 7.25008 22.5665 7.25008H22.958H23.884M6.04138 7.25008H6.43298C8.45303 7.25008 10.3394 8.25965 11.4599 9.94043L14.4997 14.5001L17.5395 19.0597C18.66 20.7405 20.5464 21.7501 22.5665 21.7501H22.958H23.884M22.0518 4.83342L23.5328 6.31446C23.7909 6.57247 23.9065 6.91565 23.884 7.25008M21.7497 9.51571L23.452 8.09715C23.7175 7.87587 23.8627 7.5669 23.884 7.25008M22.0518 19.3334L23.5328 20.8145C23.7909 21.0725 23.9065 21.4156 23.884 21.7501M21.7497 24.0157L23.452 22.5972C23.7175 22.3759 23.8627 22.0669 23.884 21.7501" stroke="#5B5B5B" stroke-width="1.8125" stroke-linecap="round"/>
</svg>
