<svg width="29" height="29" viewBox="0 0 29 29" fill="none" xmlns="http://www.w3.org/2000/svg">
<path d="M17.219 9.36465C17.219 10.8662 16.0018 12.0834 14.5002 12.0834V13.8959C17.0028 13.8959 19.0315 11.8672 19.0315 9.36465H17.219ZM14.5002 12.0834C12.9987 12.0834 11.7815 10.8662 11.7815 9.36465H9.96899C9.96899 11.8672 11.9977 13.8959 14.5002 13.8959V12.0834ZM11.7815 9.36465C11.7815 7.86313 12.9987 6.6459 14.5002 6.6459V4.8334C11.9977 4.8334 9.96899 6.86211 9.96899 9.36465H11.7815ZM14.5002 6.6459C16.0018 6.6459 17.219 7.86313 17.219 9.36465H19.0315C19.0315 6.86211 17.0028 4.8334 14.5002 4.8334V6.6459ZM10.8752 17.5209H18.1252V15.7084H10.8752V17.5209ZM18.1252 22.9584H10.8752V24.7709H18.1252V22.9584ZM10.8752 22.9584C9.37372 22.9584 8.15649 21.7412 8.15649 20.2397H6.34399C6.34399 22.7422 8.3727 24.7709 10.8752 24.7709V22.9584ZM20.844 20.2397C20.844 21.7412 19.6268 22.9584 18.1252 22.9584V24.7709C20.6278 24.7709 22.6565 22.7422 22.6565 20.2397H20.844ZM18.1252 17.5209C19.6268 17.5209 20.844 18.7381 20.844 20.2397H22.6565C22.6565 17.7371 20.6278 15.7084 18.1252 15.7084V17.5209ZM10.8752 15.7084C8.3727 15.7084 6.34399 17.7371 6.34399 20.2397H8.15649C8.15649 18.7381 9.37372 17.5209 10.8752 17.5209V15.7084Z" fill="#5B5B5B"/>
<path d="M9.36746 12.553C9.17687 12.2469 8.81926 12.0834 8.45862 12.0834C6.95709 12.0834 5.73987 10.8662 5.73987 9.36465C5.73987 7.86313 6.95709 6.6459 8.45862 6.6459C8.81926 6.6459 9.17687 6.48245 9.36745 6.17628C9.37588 6.16274 9.38437 6.14924 9.3929 6.13577C9.71021 5.6349 9.54944 4.92572 8.96008 4.86084C8.79542 4.84271 8.62811 4.8334 8.45862 4.8334C5.95608 4.8334 3.92737 6.86211 3.92737 9.36465C3.92737 11.8672 5.95608 13.8959 8.45862 13.8959C8.62811 13.8959 8.79542 13.8866 8.96008 13.8685C9.54944 13.8036 9.71021 13.0944 9.3929 12.5935C9.38437 12.5801 9.37589 12.5666 9.36746 12.553Z" fill="#5B5B5B"/>
<path d="M5.68947 22.133C5.5523 21.9041 5.31018 21.7501 5.04337 21.7501H4.83362C3.33209 21.7501 2.11487 20.5328 2.11487 19.0313C2.11487 17.5298 3.33209 16.3126 4.83362 16.3126H5.04337C5.31018 16.3126 5.5523 16.1585 5.68947 15.9297C6.0243 15.3711 5.66095 14.5001 5.00966 14.5001H4.83362C2.33108 14.5001 0.302368 16.5288 0.302368 19.0313C0.302368 21.5339 2.33108 23.5626 4.83362 23.5626H5.00966C5.66095 23.5626 6.0243 22.6916 5.68947 22.133Z" fill="#5B5B5B"/>
<path d="M19.6077 12.5935C19.2904 13.0944 19.4511 13.8036 20.0405 13.8685C20.2051 13.8866 20.3725 13.8959 20.542 13.8959C23.0445 13.8959 25.0732 11.8672 25.0732 9.36465C25.0732 6.86211 23.0445 4.8334 20.542 4.8334C20.3725 4.8334 20.2051 4.84271 20.0405 4.86084C19.4511 4.92572 19.2904 5.6349 19.6077 6.13577C19.6162 6.14923 19.6247 6.16274 19.6331 6.17628C19.8237 6.48245 20.1813 6.6459 20.542 6.6459C22.0435 6.6459 23.2607 7.86313 23.2607 9.36465C23.2607 10.8662 22.0435 12.0834 20.542 12.0834C20.1813 12.0834 19.8237 12.2469 19.6331 12.553C19.6247 12.5666 19.6162 12.5801 19.6077 12.5935Z" fill="#5B5B5B"/>
<path d="M23.3111 22.133C22.9763 22.6916 23.3396 23.5626 23.9909 23.5626H24.167C26.6695 23.5626 28.6982 21.5339 28.6982 19.0313C28.6982 16.5288 26.6695 14.5001 24.167 14.5001H23.9909C23.3396 14.5001 22.9763 15.3711 23.3111 15.9297C23.4483 16.1585 23.6904 16.3126 23.9572 16.3126H24.167C25.6685 16.3126 26.8857 17.5298 26.8857 19.0313C26.8857 20.5328 25.6685 21.7501 24.167 21.7501H23.9572C23.6904 21.7501 23.4483 21.9041 23.3111 22.133Z" fill="#5B5B5B"/>
</svg>
