<svg width="29" height="29" viewBox="0 0 29 29" fill="none" xmlns="http://www.w3.org/2000/svg">
<path d="M17.2192 9.36465C17.2192 10.8662 16.002 12.0834 14.5005 12.0834V13.8959C17.003 13.8959 19.0317 11.8672 19.0317 9.36465H17.2192ZM14.5005 12.0834C12.999 12.0834 11.7817 10.8662 11.7817 9.36465H9.96924C9.96924 11.8672 11.9979 13.8959 14.5005 13.8959V12.0834ZM11.7817 9.36465C11.7817 7.86313 12.999 6.6459 14.5005 6.6459V4.8334C11.9979 4.8334 9.96924 6.86211 9.96924 9.36465H11.7817ZM14.5005 6.6459C16.002 6.6459 17.2192 7.86313 17.2192 9.36465H19.0317C19.0317 6.86211 17.003 4.8334 14.5005 4.8334V6.6459ZM10.8755 17.5209H18.1255V15.7084H10.8755V17.5209ZM18.1255 22.9584H10.8755V24.7709H18.1255V22.9584ZM10.8755 22.9584C9.37396 22.9584 8.15674 21.7412 8.15674 20.2397H6.34424C6.34424 22.7422 8.37295 24.7709 10.8755 24.7709V22.9584ZM20.8442 20.2397C20.8442 21.7412 19.627 22.9584 18.1255 22.9584V24.7709C20.628 24.7709 22.6567 22.7422 22.6567 20.2397H20.8442ZM18.1255 17.5209C19.627 17.5209 20.8442 18.7381 20.8442 20.2397H22.6567C22.6567 17.7371 20.628 15.7084 18.1255 15.7084V17.5209ZM10.8755 15.7084C8.37295 15.7084 6.34424 17.7371 6.34424 20.2397H8.15674C8.15674 18.7381 9.37396 17.5209 10.8755 17.5209V15.7084Z" fill="#FF9900"/>
<path d="M9.36758 12.553C9.17699 12.2469 8.81938 12.0834 8.45874 12.0834C6.95722 12.0834 5.73999 10.8662 5.73999 9.36465C5.73999 7.86313 6.95722 6.6459 8.45874 6.6459C8.81938 6.6459 9.17699 6.48245 9.36758 6.17628C9.37601 6.16274 9.38449 6.14924 9.39302 6.13577C9.71033 5.6349 9.54956 4.92572 8.9602 4.86084C8.79554 4.84271 8.62823 4.8334 8.45874 4.8334C5.9562 4.8334 3.92749 6.86211 3.92749 9.36465C3.92749 11.8672 5.9562 13.8959 8.45874 13.8959C8.62823 13.8959 8.79554 13.8866 8.9602 13.8685C9.54956 13.8036 9.71033 13.0944 9.39302 12.5935C9.38449 12.5801 9.37601 12.5666 9.36758 12.553Z" fill="#FF9900"/>
<path d="M5.68959 22.133C5.55242 21.9041 5.3103 21.7501 5.04349 21.7501H4.83374C3.33222 21.7501 2.11499 20.5328 2.11499 19.0313C2.11499 17.5298 3.33222 16.3126 4.83374 16.3126H5.04349C5.3103 16.3126 5.55242 16.1585 5.68959 15.9297C6.02442 15.3711 5.66107 14.5001 5.00978 14.5001H4.83374C2.3312 14.5001 0.30249 16.5288 0.30249 19.0313C0.30249 21.5339 2.3312 23.5626 4.83374 23.5626H5.00978C5.66107 23.5626 6.02442 22.6916 5.68959 22.133Z" fill="#FF9900"/>
<path d="M19.6078 12.5935C19.2905 13.0944 19.4513 13.8036 20.0406 13.8685C20.2053 13.8866 20.3726 13.8959 20.5421 13.8959C23.0446 13.8959 25.0733 11.8672 25.0733 9.36465C25.0733 6.86211 23.0446 4.8334 20.5421 4.8334C20.3726 4.8334 20.2053 4.84271 20.0406 4.86084C19.4513 4.92572 19.2905 5.6349 19.6078 6.13577C19.6163 6.14923 19.6248 6.16274 19.6332 6.17628C19.8238 6.48245 20.1814 6.6459 20.5421 6.6459C22.0436 6.6459 23.2608 7.86313 23.2608 9.36465C23.2608 10.8662 22.0436 12.0834 20.5421 12.0834C20.1814 12.0834 19.8238 12.2469 19.6332 12.553C19.6248 12.5666 19.6163 12.5801 19.6078 12.5935Z" fill="#FF9900"/>
<path d="M23.3112 22.133C22.9764 22.6916 23.3397 23.5626 23.991 23.5626H24.1671C26.6696 23.5626 28.6983 21.5339 28.6983 19.0313C28.6983 16.5288 26.6696 14.5001 24.1671 14.5001H23.991C23.3397 14.5001 22.9764 15.3711 23.3112 15.9297C23.4484 16.1585 23.6905 16.3126 23.9573 16.3126H24.1671C25.6686 16.3126 26.8858 17.5298 26.8858 19.0313C26.8858 20.5328 25.6686 21.7501 24.1671 21.7501H23.9573C23.6905 21.7501 23.4484 21.9041 23.3112 22.133Z" fill="#FF9900"/>
</svg>
