<svg width="27" height="27" viewBox="0 0 27 27" fill="none" xmlns="http://www.w3.org/2000/svg">
<path d="M12.6562 21.375C12.6562 21.841 13.034 22.2187 13.5 22.2188C13.966 22.2188 14.3437 21.841 14.3438 21.375L12.6562 21.375ZM14.3437 5.625C14.3437 5.15901 13.966 4.78125 13.5 4.78125C13.034 4.78125 12.6562 5.15901 12.6562 5.625H14.3437ZM16.2424 9.50821C16.4754 9.91177 16.9914 10.05 17.395 9.81705C17.7985 9.58405 17.9368 9.06802 17.7038 8.66446L16.2424 9.50821ZM16.5506 8.35453L17.2813 7.93265L16.5506 8.35453ZM12.5213 13.14L12.8125 12.3481L12.5213 13.14ZM14.4789 13.86L14.7701 13.0681H14.7701L14.4789 13.86ZM10.4495 18.6455L9.71882 19.0673L10.4495 18.6455ZM10.7577 17.4918C10.5247 17.0882 10.0087 16.95 9.60515 17.183C9.20159 17.4159 9.06332 17.932 9.29631 18.3355L10.7577 17.4918ZM14.9938 19.8631L14.5719 19.1324L14.9938 19.8631ZM12.0063 7.1369L12.4282 7.86761L12.0063 7.1369ZM5.69371 22.5507L6.18965 21.8681L5.69371 22.5507ZM4.44928 21.3063L5.13189 20.8103L4.44928 21.3063ZM22.5507 21.3063L21.8681 20.8103L22.5507 21.3063ZM21.3063 22.5507L20.8103 21.8681L21.3063 22.5507ZM21.3063 4.44928L20.8103 5.13189L21.3063 4.44928ZM22.5507 5.69371L21.8681 6.18965L22.5507 5.69371ZM5.69371 4.44928L6.18965 5.13189L5.69371 4.44928ZM4.44928 5.69371L5.13189 6.18965L4.44928 5.69371ZM17.7038 8.66446L17.2813 7.93265L15.8199 8.7764L16.2424 9.50821L17.7038 8.66446ZM11.1802 18.2236L10.7577 17.4918L9.29631 18.3355L9.71882 19.0673L11.1802 18.2236ZM14.1876 14.6519C16.1633 15.3786 16.395 18.0799 14.5719 19.1324L15.4157 20.5938C18.4778 18.8259 18.0886 14.2887 14.7701 13.0681L14.1876 14.6519ZM11.5844 6.40619C8.52234 8.17409 8.91154 12.7113 12.23 13.9319L12.8125 12.3481C10.8368 11.6214 10.6051 8.92015 12.4282 7.86761L11.5844 6.40619ZM13.5 22.7812C11.372 22.7812 9.84374 22.7801 8.6603 22.6519C7.49265 22.5254 6.76116 22.2833 6.18965 21.8681L5.19776 23.2333C6.10488 23.8924 7.16731 24.1875 8.47854 24.3296C9.77397 24.4699 11.4096 24.4688 13.5 24.4688V22.7812ZM2.53125 13.5C2.53125 15.5904 2.53009 17.226 2.67044 18.5215C2.81251 19.8327 3.10761 20.8951 3.76667 21.8022L5.13189 20.8103C4.71667 20.2388 4.47463 19.5073 4.34813 18.3397C4.21991 17.1563 4.21875 15.628 4.21875 13.5H2.53125ZM6.18965 21.8681C5.78375 21.5732 5.42679 21.2163 5.13189 20.8103L3.76667 21.8022C4.16566 22.3514 4.6486 22.8343 5.19776 23.2333L6.18965 21.8681ZM22.7812 13.5C22.7812 15.628 22.7801 17.1563 22.6519 18.3397C22.5254 19.5073 22.2833 20.2388 21.8681 20.8103L23.2333 21.8022C23.8924 20.8951 24.1875 19.8327 24.3296 18.5215C24.4699 17.226 24.4688 15.5904 24.4688 13.5H22.7812ZM13.5 24.4688C15.5904 24.4688 17.226 24.4699 18.5215 24.3296C19.8327 24.1875 20.8951 23.8924 21.8022 23.2333L20.8103 21.8681C20.2388 22.2833 19.5073 22.5254 18.3397 22.6519C17.1563 22.7801 15.628 22.7812 13.5 22.7812V24.4688ZM21.8681 20.8103C21.5732 21.2163 21.2163 21.5732 20.8103 21.8681L21.8022 23.2333C22.3514 22.8343 22.8343 22.3514 23.2333 21.8022L21.8681 20.8103ZM13.5 4.21875C15.628 4.21875 17.1563 4.21991 18.3397 4.34813C19.5073 4.47463 20.2388 4.71667 20.8103 5.13189L21.8022 3.76667C20.8951 3.10761 19.8327 2.81251 18.5215 2.67044C17.226 2.53009 15.5904 2.53125 13.5 2.53125V4.21875ZM24.4688 13.5C24.4688 11.4096 24.4699 9.77397 24.3296 8.47854C24.1875 7.16731 23.8924 6.10488 23.2333 5.19776L21.8681 6.18965C22.2833 6.76116 22.5254 7.49265 22.6519 8.6603C22.7801 9.84374 22.7812 11.372 22.7812 13.5H24.4688ZM20.8103 5.13189C21.2163 5.42679 21.5732 5.78375 21.8681 6.18965L23.2333 5.19776C22.8343 4.6486 22.3514 4.16566 21.8022 3.76667L20.8103 5.13189ZM13.5 2.53125C11.4096 2.53125 9.77397 2.53009 8.47854 2.67044C7.16731 2.81251 6.10488 3.10761 5.19776 3.76667L6.18965 5.13189C6.76116 4.71667 7.49265 4.47463 8.6603 4.34813C9.84374 4.21991 11.372 4.21875 13.5 4.21875V2.53125ZM4.21875 13.5C4.21875 11.372 4.21991 9.84374 4.34813 8.6603C4.47463 7.49265 4.71667 6.76116 5.13189 6.18965L3.76667 5.19776C3.10761 6.10488 2.81251 7.16731 2.67044 8.47854C2.53009 9.77397 2.53125 11.4096 2.53125 13.5H4.21875ZM5.19776 3.76667C4.6486 4.16566 4.16566 4.6486 3.76667 5.19776L5.13189 6.18965C5.42679 5.78375 5.78375 5.42679 6.18965 5.13189L5.19776 3.76667ZM17.2813 7.93265C16.471 6.52917 14.9687 5.77625 13.4577 5.85215L13.5423 7.53752C14.4457 7.49215 15.3384 7.9425 15.8199 8.7764L17.2813 7.93265ZM13.4577 5.85215C12.8174 5.88431 12.1754 6.06502 11.5844 6.40619L12.4282 7.86761C12.7821 7.66329 13.163 7.55658 13.5423 7.53752L13.4577 5.85215ZM14.3437 6.69484V5.625H12.6562V6.69484H14.3437ZM14.3438 13.5L14.3437 6.69483L12.6562 6.69484L12.6563 13.5L14.3438 13.5ZM12.23 13.9319L13.2088 14.2919L13.7913 12.7081L12.8125 12.3481L12.23 13.9319ZM13.2088 14.2919L14.1876 14.6519L14.7701 13.0681L13.7913 12.7081L13.2088 14.2919ZM14.3438 21.375L14.3438 20.3052L12.6563 20.3052L12.6562 21.375L14.3438 21.375ZM14.3438 20.3052L14.3438 13.5L12.6563 13.5L12.6563 20.3052L14.3438 20.3052ZM14.5719 19.1324C14.218 19.3367 13.837 19.4434 13.4577 19.4625L13.5423 21.1479C14.1826 21.1157 14.8247 20.935 15.4157 20.5938L14.5719 19.1324ZM13.4577 19.4625C12.5544 19.5078 11.6617 19.0575 11.1802 18.2236L9.71882 19.0673C10.5291 20.4708 12.0313 21.2237 13.5423 21.1479L13.4577 19.4625Z" fill="#FF9900"/>
</svg>
