<svg width="30" height="30" viewBox="0 0 30 30" fill="none" xmlns="http://www.w3.org/2000/svg">
<path d="M15 2L26.2583 21.5L3.74167 21.5L15 2Z" stroke="white" stroke-width="2"/>
<path d="M14.6844 15.8229L14.5902 9.80987H15.4478L15.3724 15.8229H14.6844ZM14.9766 18.0754C14.8415 18.0754 14.7237 18.022 14.6232 17.9152C14.5258 17.8084 14.4739 17.6701 14.4676 17.5005C14.4645 17.3811 14.4881 17.2727 14.5383 17.1753C14.5917 17.0748 14.6609 16.9963 14.7457 16.9397C14.8336 16.88 14.9263 16.8502 15.0237 16.8502C15.1934 16.8502 15.3206 16.9067 15.4054 17.0198C15.4934 17.1329 15.5389 17.268 15.5421 17.4251C15.5452 17.5508 15.5201 17.6623 15.4667 17.7597C15.4164 17.8571 15.3473 17.934 15.2593 17.9906C15.1714 18.0471 15.0771 18.0754 14.9766 18.0754Z" fill="white"/>
</svg>
