<svg width="15" height="15" viewBox="0 0 15 15" fill="none" xmlns="http://www.w3.org/2000/svg">
<path d="M6.25 9.375L6.25 7.5" stroke="white" stroke-width="0.9" stroke-linecap="round"/>
<path d="M8.75 9.375L8.75 7.5" stroke="white" stroke-width="0.9" stroke-linecap="round"/>
<path d="M2 4H13.25V4C12.2145 4 11.375 4.83947 11.375 5.875V8.375C11.375 10.0187 11.375 10.8406 10.921 11.3938C10.8379 11.4951 10.7451 11.5879 10.6438 11.671C10.0906 12.125 9.26874 12.125 7.625 12.125V12.125C5.98126 12.125 5.15939 12.125 4.60621 11.671C4.50495 11.5879 4.41209 11.4951 4.32898 11.3938C3.875 10.8406 3.875 10.0187 3.875 8.375V5.875C3.875 4.83947 3.03553 4 2 4V4Z" stroke="white" stroke-width="0.9" stroke-linecap="round"/>
<path d="M6.29259 2.10662C6.36381 2.04017 6.52074 1.98146 6.73905 1.93958C6.95735 1.8977 7.22483 1.875 7.5 1.875C7.77517 1.875 8.04265 1.8977 8.26095 1.93958C8.47926 1.98145 8.63619 2.04017 8.70741 2.10662" stroke="white" stroke-width="0.9" stroke-linecap="round"/>
</svg>
