<svg width="16" height="17" viewBox="0 0 16 17" fill="none" xmlns="http://www.w3.org/2000/svg">
<path d="M6.3542 13.1414L6.17225 12.6757L6.3542 13.1414ZM3.64994 13.6607L3.39994 14.0937H3.39994L3.64994 13.6607ZM2.74752 11.0591L2.25322 11.1344L2.74752 11.0591ZM3.07439 9.32425L3.5074 9.57425L3.07439 9.32425ZM2.68496 10.1491L2.1936 10.0565L2.1936 10.0565L2.68496 10.1491ZM7.69319 11.9909L8.1262 12.2409L7.69319 11.9909ZM7.17357 12.7406L7.49942 13.1198L7.17357 12.7406ZM5.60668 4.93819L5.17367 4.68819L5.60668 4.93819ZM12.94 14.4621C13.2162 14.4621 13.44 14.2383 13.44 13.9621C13.44 13.686 13.2162 13.4621 12.94 13.4621V14.4621ZM8.94001 13.4621C8.66387 13.4621 8.44001 13.686 8.44001 13.9621C8.44001 14.2383 8.66387 14.4621 8.94001 14.4621V13.4621ZM9.79247 7.35486L7.26018 11.7409L8.1262 12.2409L10.6585 7.85486L9.79247 7.35486ZM3.5074 9.57425L6.03969 5.18819L5.17367 4.68819L2.64138 9.07425L3.5074 9.57425ZM6.17225 12.6757C5.44127 12.9613 4.94343 13.1545 4.55911 13.2443C4.18786 13.331 4.0194 13.2967 3.89994 13.2277L3.39994 14.0937C3.83545 14.3452 4.30269 14.3311 4.78662 14.218C5.25748 14.108 5.83428 13.8814 6.53616 13.6071L6.17225 12.6757ZM2.25322 11.1344C2.36668 11.8793 2.45878 12.4922 2.59894 12.955C2.74299 13.4306 2.96442 13.8423 3.39994 14.0937L3.89994 13.2277C3.78047 13.1587 3.66652 13.03 3.55601 12.6651C3.44161 12.2874 3.35999 11.7597 3.24182 10.9838L2.25322 11.1344ZM2.64138 9.07425C2.42683 9.44586 2.25505 9.73036 2.1936 10.0565L3.17631 10.2417C3.19895 10.1215 3.25876 10.0049 3.5074 9.57425L2.64138 9.07425ZM3.24182 10.9838C3.16695 10.4922 3.15368 10.3618 3.17631 10.2417L2.1936 10.0565C2.13215 10.3827 2.18862 10.7102 2.25322 11.1344L3.24182 10.9838ZM7.26018 11.7409C7.01154 12.1716 6.94045 12.2817 6.84772 12.3614L7.49942 13.1198C7.75116 12.9035 7.91166 12.6125 8.1262 12.2409L7.26018 11.7409ZM6.53616 13.6071C6.93583 13.451 7.24769 13.3361 7.49942 13.1198L6.84772 12.3614C6.755 12.441 6.63543 12.4947 6.17225 12.6757L6.53616 13.6071ZM8.99942 4.39514C9.55599 4.71647 9.92933 4.93325 10.1866 5.13175C10.4323 5.32139 10.5106 5.44913 10.5424 5.56781L11.5083 5.30899C11.3972 4.8942 11.1318 4.59807 10.7975 4.34008C10.4747 4.09095 10.0315 3.83631 9.49942 3.52911L8.99942 4.39514ZM10.6585 7.85486C10.9657 7.32277 11.2222 6.88067 11.3772 6.5035C11.5377 6.11291 11.6195 5.72378 11.5083 5.30899L10.5424 5.56781C10.5742 5.68649 10.5703 5.83625 10.4523 6.12336C10.3287 6.42389 10.1138 6.79829 9.79247 7.35486L10.6585 7.85486ZM9.49942 3.52911C8.96733 3.22191 8.52523 2.96544 8.14806 2.81042C7.75747 2.64989 7.36834 2.56815 6.95355 2.67929L7.21237 3.64522C7.33104 3.61342 7.48081 3.61735 7.76791 3.73535C8.06844 3.85887 8.44284 4.0738 8.99942 4.39514L9.49942 3.52911ZM6.03969 5.18819C6.36103 4.63162 6.5778 4.25828 6.77631 4.00105C6.96595 3.7553 7.09369 3.67702 7.21237 3.64522L6.95355 2.67929C6.53876 2.79044 6.24263 3.05579 5.98463 3.39011C5.7355 3.71294 5.48087 4.1561 5.17367 4.68819L6.03969 5.18819ZM10.4755 7.17185L5.85668 4.50518L5.35668 5.37121L9.97548 8.03787L10.4755 7.17185ZM12.94 13.4621H8.94001V14.4621H12.94V13.4621Z" fill="#5867DD"/>
</svg>
