<svg width="15" height="15" viewBox="0 0 15 15" fill="none" xmlns="http://www.w3.org/2000/svg">
<path d="M7.38456 6.15387C8.06429 6.15387 8.61533 6.7049 8.61533 7.38464C8.61533 8.06437 8.06429 8.61541 7.38456 8.61541C6.70482 8.61541 6.15379 8.06437 6.15379 7.38464C6.15379 6.7049 6.70482 6.15387 7.38456 6.15387Z" stroke="#4A4A4A" stroke-width="0.923077"/>
<path d="M2.46148 6.15387C3.14122 6.15387 3.69225 6.7049 3.69225 7.38464C3.69225 8.06437 3.14122 8.61541 2.46148 8.61541C1.78175 8.61541 1.23071 8.06437 1.23071 7.38464C1.23071 6.7049 1.78175 6.15387 2.46148 6.15387Z" stroke="#4A4A4A" stroke-width="0.923077"/>
<path d="M12.3076 6.15387C12.9874 6.15387 13.5384 6.7049 13.5384 7.38464C13.5384 8.06437 12.9874 8.61541 12.3076 8.61541C11.6279 8.61541 11.0769 8.06437 11.0769 7.38464C11.0769 6.7049 11.6279 6.15387 12.3076 6.15387Z" stroke="#4A4A4A" stroke-width="0.923077"/>
</svg>
