<svg width="20" height="20" viewBox="0 0 20 20" fill="none" xmlns="http://www.w3.org/2000/svg">
<path d="M8.33301 12.5L8.33301 10" stroke="#F4516C" stroke-width="1.2" stroke-linecap="round"/>
<path d="M11.667 12.5L11.667 10" stroke="#F4516C" stroke-width="1.2" stroke-linecap="round"/>
<path d="M2.66699 5.33334H17.667V5.33334C16.2863 5.33334 15.167 6.45263 15.167 7.83334V11.1667C15.167 13.3583 15.167 14.4542 14.5617 15.1917C14.4509 15.3268 14.3271 15.4506 14.192 15.5614C13.4545 16.1667 12.3586 16.1667 10.167 16.1667V16.1667C7.97534 16.1667 6.87951 16.1667 6.14194 15.5614C6.00692 15.4506 5.88311 15.3268 5.7723 15.1917C5.16699 14.4542 5.16699 13.3583 5.16699 11.1667V7.83334C5.16699 6.45263 4.0477 5.33334 2.66699 5.33334V5.33334Z" stroke="#F4516C" stroke-width="1.2" stroke-linecap="round"/>
<path d="M8.39045 2.80883C8.48541 2.72023 8.69465 2.64194 8.98572 2.5861C9.2768 2.53027 9.63343 2.5 10.0003 2.5C10.3672 2.5 10.7239 2.53027 11.0149 2.5861C11.306 2.64194 11.5152 2.72023 11.6102 2.80883" stroke="#F4516C" stroke-width="1.2" stroke-linecap="round"/>
</svg>
