<svg width="58" height="58" viewBox="0 0 58 58" fill="none" xmlns="http://www.w3.org/2000/svg">
<path d="M41.0833 41.0831H31.4167M50.7233 24.1665C50.75 25.561 50.75 27.1546 50.75 28.9998C50.75 35.7671 50.75 39.1508 49.433 41.7355C48.2745 44.0092 46.426 45.8577 44.1524 47.0161C41.5676 48.3331 38.184 48.3331 31.4167 48.3331H26.5833C19.816 48.3331 16.4324 48.3331 13.8476 47.0161C11.574 45.8577 9.72547 44.0092 8.567 41.7355C7.25 39.1508 7.25 35.7671 7.25 28.9998C7.25 27.1546 7.25 25.561 7.2767 24.1665M50.7233 24.1665C50.6521 20.4467 50.3909 18.1441 49.433 16.2641C48.2745 13.9905 46.426 12.1419 44.1524 10.9835C41.5676 9.66647 38.184 9.66647 31.4167 9.66647H26.5833C19.816 9.66647 16.4324 9.66647 13.8476 10.9835C11.574 12.1419 9.72547 13.9905 8.567 16.2641C7.6091 18.1441 7.34791 20.4467 7.2767 24.1665M50.7233 24.1665H7.2767" stroke="#6F727D" stroke-width="3.625" stroke-linecap="round"/>
</svg>
