<svg width="47" height="47" viewBox="0 0 47 47" fill="none" xmlns="http://www.w3.org/2000/svg">
<path d="M22.0324 37.2086C22.0324 38.0198 22.6899 38.6773 23.5011 38.6773C24.3123 38.6773 24.9699 38.0198 24.9699 37.2086H22.0324ZM24.9699 9.79193C24.9699 8.98076 24.3123 8.32318 23.5011 8.32318C22.6899 8.32318 22.0324 8.98076 22.0324 9.79193H24.9699ZM28.275 16.5516C28.6806 17.2541 29.5789 17.4948 30.2814 17.0892C30.9839 16.6836 31.2245 15.7853 30.819 15.0829L28.275 16.5516ZM28.8115 14.5433L27.5395 15.2777L27.5395 15.2777L28.8115 14.5433ZM21.7975 22.8736L22.3046 21.4951L22.3045 21.4951L21.7975 22.8736ZM25.2052 24.127L25.7122 22.7485L25.7122 22.7485L25.2052 24.127ZM18.1912 32.4572L16.9192 33.1916L18.1912 32.4572ZM18.7277 30.4489C18.3221 29.7464 17.4238 29.5058 16.7213 29.9113C16.0188 30.3169 15.7781 31.2152 16.1837 31.9177L18.7277 30.4489ZM26.1015 34.5768L25.3672 33.3048L26.1015 34.5768ZM20.9011 12.4238L21.6355 13.6957H21.6355L20.9011 12.4238ZM41.6157 23.5003C41.6157 33.5047 33.5055 41.6148 23.5011 41.6148V44.5523C35.1279 44.5523 44.5532 35.127 44.5532 23.5003H41.6157ZM23.5011 41.6148C13.4967 41.6148 5.38654 33.5047 5.38654 23.5003H2.44904C2.44904 35.127 11.8744 44.5523 23.5011 44.5523V41.6148ZM5.38654 23.5003C5.38654 13.4959 13.4967 5.38568 23.5011 5.38568V2.44818C11.8744 2.44818 2.44904 11.8735 2.44904 23.5003H5.38654ZM23.5011 5.38568C33.5055 5.38568 41.6157 13.4959 41.6157 23.5003H44.5532C44.5532 11.8735 35.1279 2.44818 23.5011 2.44818V5.38568ZM30.819 15.0829L30.0835 13.809L27.5395 15.2777L28.275 16.5516L30.819 15.0829ZM19.4631 31.7228L18.7277 30.4489L16.1837 31.9177L16.9192 33.1916L19.4631 31.7228ZM24.6982 25.5054C28.1373 26.7704 28.5406 31.4726 25.3672 33.3048L26.8359 35.8488C32.1662 32.7713 31.4888 24.8732 25.7122 22.7485L24.6982 25.5054ZM20.1667 11.1518C14.8364 14.2292 15.5139 22.1273 21.2905 24.252L22.3045 21.4951C18.8654 20.2301 18.462 15.5279 21.6355 13.6957L20.1667 11.1518ZM24.9699 37.2086V35.3463H22.0324V37.2086H24.9699ZM24.9699 35.3463V23.5003H22.0324V35.3463H24.9699ZM25.3672 33.3048C24.7511 33.6605 24.0878 33.8463 23.4275 33.8794L23.5747 36.8132C24.6894 36.7573 25.8072 36.4427 26.8359 35.8488L25.3672 33.3048ZM23.4275 33.8794C21.8551 33.9583 20.3012 33.1744 19.4631 31.7228L16.9192 33.1916C18.3296 35.6346 20.9446 36.9452 23.5747 36.8132L23.4275 33.8794ZM21.2904 24.252L22.994 24.8787L24.0082 22.1218L22.3046 21.4951L21.2904 24.252ZM22.9941 24.8787L24.6982 25.5055L25.7122 22.7485L24.0081 22.1218L22.9941 24.8787ZM24.9699 23.5003L24.9699 11.6543H22.0324L22.0324 23.5003H24.9699ZM24.9699 11.6543V9.79193H22.0324V11.6543H24.9699ZM30.0835 13.809C28.6729 11.3658 26.0577 10.0552 23.4274 10.1874L23.5748 13.1212C25.1474 13.0421 26.7014 13.8261 27.5395 15.2777L30.0835 13.809ZM23.4274 10.1874C22.3129 10.2434 21.1953 10.5579 20.1667 11.1518L21.6355 13.6957C22.2515 13.3401 22.9146 13.1543 23.5748 13.1212L23.4274 10.1874Z" fill="#34BFA3"/>
</svg>
