<svg width="30" height="30" viewBox="0 0 30 30" fill="none" xmlns="http://www.w3.org/2000/svg">
<path d="M7.77931 7.12981L7.56231 7.99552L7.77931 7.12981ZM11.795 4.81133L10.9368 4.5664L11.795 4.81133ZM4.57404 12.6815L5.21527 12.0607L4.57404 12.6815ZM4.57404 17.3185L3.93281 16.6977H3.93281L4.57404 17.3185ZM7.77931 22.8702L7.99632 23.7359L7.77931 22.8702ZM11.795 25.1886L10.9368 25.4336L11.795 25.1886ZM18.2056 25.1886L19.0638 25.4336L18.2056 25.1886ZM22.2213 22.8702L22.4383 22.0045L22.2213 22.8702ZM25.4266 17.3185L24.7854 17.9393L25.4266 17.3185ZM25.4266 12.6815L24.7854 12.0607L25.4266 12.6815ZM22.2213 7.12981L22.0043 6.26409L22.2213 7.12981ZM18.2056 4.81133L19.0638 4.5664L18.2056 4.81133ZM7.56231 7.99552C9.77441 8.55001 12.0274 7.24924 12.6533 5.05626L10.9368 4.5664C10.5753 5.83304 9.274 6.58436 7.99632 6.26409L7.56231 7.99552ZM5.21527 12.0607C3.5073 10.2965 5.18048 7.39849 7.56231 7.99552L7.99632 6.26409C3.87257 5.23042 0.975751 10.2479 3.93281 13.3023L5.21527 12.0607ZM5.21527 17.9393C6.80152 16.3008 6.80152 13.6992 5.21527 12.0607L3.93281 13.3023C4.84901 14.2487 4.84901 15.7513 3.93281 16.6977L5.21527 17.9393ZM7.56231 22.0045C5.18048 22.6015 3.5073 19.7035 5.21527 17.9393L3.93281 16.6977C0.97575 19.7521 3.87257 24.7696 7.99632 23.7359L7.56231 22.0045ZM12.6533 24.9437C12.0274 22.7507 9.77441 21.45 7.56231 22.0045L7.99632 23.7359C9.274 23.4156 10.5753 24.1669 10.9368 25.4336L12.6533 24.9437ZM17.3474 24.9437C16.6735 27.305 13.3271 27.305 12.6533 24.9437L10.9368 25.4336C12.1035 29.5217 17.8971 29.5217 19.0638 25.4336L17.3474 24.9437ZM22.4383 22.0045C20.2262 21.45 17.9732 22.7507 17.3474 24.9437L19.0638 25.4336C19.4253 24.1669 20.7266 23.4156 22.0043 23.7359L22.4383 22.0045ZM24.7854 17.9393C26.4933 19.7035 24.8201 22.6015 22.4383 22.0045L22.0043 23.7359C26.1281 24.7696 29.0249 19.7521 26.0678 16.6977L24.7854 17.9393ZM24.7854 12.0607C23.1991 13.6992 23.1991 16.3008 24.7854 17.9393L26.0678 16.6977C25.1516 15.7513 25.1516 14.2487 26.0678 13.3023L24.7854 12.0607ZM22.4383 7.99552C24.8201 7.39849 26.4933 10.2965 24.7854 12.0607L26.0678 13.3023C29.0249 10.2479 26.1281 5.23042 22.0043 6.26409L22.4383 7.99552ZM17.3474 5.05626C17.9732 7.24924 20.2262 8.55001 22.4383 7.99552L22.0043 6.26409C20.7266 6.58436 19.4253 5.83304 19.0638 4.5664L17.3474 5.05626ZM19.0638 4.5664C17.8971 0.478296 12.1035 0.478297 10.9368 4.5664L12.6533 5.05626C13.3271 2.69501 16.6735 2.69501 17.3474 5.05626L19.0638 4.5664ZM10.5378 15C10.5378 17.4646 12.5357 19.4625 15.0003 19.4625V17.6775C13.5216 17.6775 12.3228 16.4787 12.3228 15H10.5378ZM15.0003 19.4625C17.4649 19.4625 19.4628 17.4646 19.4628 15H17.6778C17.6778 16.4787 16.4791 17.6775 15.0003 17.6775V19.4625ZM19.4628 15C19.4628 12.5354 17.4649 10.5375 15.0003 10.5375V12.3225C16.4791 12.3225 17.6778 13.5212 17.6778 15H19.4628ZM15.0003 10.5375C12.5357 10.5375 10.5378 12.5354 10.5378 15H12.3228C12.3228 13.5212 13.5216 12.3225 15.0003 12.3225V10.5375Z" fill="#5B5B5B"/>
</svg>
