<svg width="86" height="86" viewBox="0 0 86 86" fill="none" xmlns="http://www.w3.org/2000/svg">
<path d="M24.6458 27.7708C24.6458 32.4652 28.4514 36.2708 33.1458 36.2708V40.7708C25.9661 40.7708 20.1458 34.9505 20.1458 27.7708H24.6458ZM33.1458 36.2708C37.8403 36.2708 41.6458 32.4652 41.6458 27.7708H46.1458C46.1458 34.9505 40.3255 40.7708 33.1458 40.7708V36.2708ZM41.6458 27.7708C41.6458 23.0763 37.8403 19.2708 33.1458 19.2708V14.7708C40.3255 14.7708 46.1458 20.591 46.1458 27.7708H41.6458ZM33.1458 19.2708C28.4514 19.2708 24.6458 23.0763 24.6458 27.7708H20.1458C20.1458 20.591 25.9661 14.7708 33.1458 14.7708V19.2708ZM43.8958 51.5208H22.3958V47.0208H43.8958V51.5208ZM22.3958 68.5208H43.8958V73.0208H22.3958V68.5208ZM43.8958 68.5208C48.5903 68.5208 52.3958 64.7152 52.3958 60.0208H56.8958C56.8958 67.2005 51.0755 73.0208 43.8958 73.0208V68.5208ZM13.8958 60.0208C13.8958 64.7152 17.7014 68.5208 22.3958 68.5208V73.0208C15.2161 73.0208 9.39584 67.2005 9.39584 60.0208H13.8958ZM22.3958 51.5208C17.7014 51.5208 13.8958 55.3263 13.8958 60.0208H9.39584C9.39584 52.841 15.2161 47.0208 22.3958 47.0208V51.5208ZM43.8958 47.0208C51.0755 47.0208 56.8958 52.841 56.8958 60.0208H52.3958C52.3958 55.3263 48.5903 51.5208 43.8958 51.5208V47.0208Z" fill="#5867DD"/>
<path d="M49 39C52.1826 39 55.2348 37.7884 57.4853 35.6317C59.7357 33.4751 61 30.55 61 27.5C61 24.45 59.7357 21.5249 57.4853 19.3683C55.2348 17.2116 52.1826 16 49 16" stroke="#5867DD" stroke-width="4" stroke-linecap="round"/>
<path d="M61 71C64.1826 71 67.2348 69.7884 69.4853 67.6317C71.7357 65.4751 73 62.55 73 59.5C73 56.45 71.7357 53.5249 69.4853 51.3683C67.2348 49.2116 64.1826 48 61 48" stroke="#5867DD" stroke-width="4" stroke-linecap="round"/>
</svg>
