<svg width="50" height="50" viewBox="0 0 50 50" fill="none" xmlns="http://www.w3.org/2000/svg">
<path d="M9.14177 44.2982L9.95817 42.966H9.95817L9.14177 44.2982ZM5.70279 40.8593L7.03504 40.0429H7.03504L5.70279 40.8593ZM44.2995 40.8593L42.9672 40.0429L44.2995 40.8593ZM40.8605 44.2982L40.0441 42.966L40.8605 44.2982ZM40.8605 11.9516L40.0441 13.2838L40.8605 11.9516ZM44.2995 15.3905L42.9672 16.2069L44.2995 15.3905ZM9.14177 11.9516L9.95817 13.2838H9.95817L9.14177 11.9516ZM5.70279 15.3905L7.03504 16.2069H7.03504L5.70279 15.3905ZM38.4944 5.305L39.622 4.22339V4.22339L38.4944 5.305ZM8.00992 6.02238L8.95334 7.26791L8.95334 7.26791L8.00992 6.02238ZM5.94789 8.17212L7.2298 9.06549L5.94789 8.17212ZM39.5845 10.6881H41.147L41.1469 10.6804L39.5845 10.6881ZM38.2587 28.3617C39.1216 28.3617 39.8212 27.6621 39.8212 26.7992C39.8212 25.9362 39.1216 25.2367 38.2587 25.2367V28.3617ZM32.5769 25.2367C31.7139 25.2367 31.0144 25.9362 31.0144 26.7992C31.0144 27.6621 31.7139 28.3617 32.5769 28.3617V25.2367ZM21.8761 11.9791H28.1261V8.85407H21.8761V11.9791ZM28.1261 44.2707H21.8761V47.3957H28.1261V44.2707ZM21.8761 44.2707C18.436 44.2707 15.9657 44.2691 14.0388 44.0859C12.1352 43.9049 10.9238 43.5578 9.95817 42.966L8.32536 45.6305C9.86457 46.5737 11.6106 46.9941 13.743 47.1968C15.8522 47.3974 18.4966 47.3957 21.8761 47.3957V44.2707ZM2.60529 28.1249C2.60529 31.5045 2.60365 34.1489 2.80418 36.258C3.00693 38.3904 3.42731 40.1365 4.37054 41.6757L7.03504 40.0429C6.44327 39.0772 6.09615 37.8659 5.91515 35.9622C5.73194 34.0353 5.73029 31.565 5.73029 28.1249H2.60529ZM9.95817 42.966C8.76679 42.2359 7.76512 41.2342 7.03504 40.0429L4.37054 41.6757C5.35829 43.2875 6.7135 44.6427 8.32536 45.6305L9.95817 42.966ZM28.1261 47.3957C31.5057 47.3957 34.1501 47.3974 36.2592 47.1968C38.3916 46.9941 40.1377 46.5737 41.6769 45.6305L40.0441 42.966C39.0784 43.5578 37.8671 43.9049 35.9634 44.0859C34.0365 44.2691 31.5662 44.2707 28.1261 44.2707V47.3957ZM42.9672 40.0429C42.2371 41.2342 41.2355 42.2359 40.0441 42.966L41.6769 45.6305C43.2888 44.6427 44.644 43.2875 45.6317 41.6757L42.9672 40.0429ZM40.0441 13.2838C41.2355 14.0139 42.2371 15.0156 42.9672 16.2069L45.6317 14.5741C44.644 12.9623 43.2888 11.6071 41.6769 10.6193L40.0441 13.2838ZM21.8761 8.85407C18.4966 8.85407 15.8522 8.85242 13.743 9.05296C11.6106 9.2557 9.86457 9.67608 8.32536 10.6193L9.95817 13.2838C10.9238 12.692 12.1352 12.3449 14.0388 12.1639C15.9657 11.9807 18.436 11.9791 21.8761 11.9791V8.85407ZM5.73029 28.1249C5.73029 24.6848 5.73194 22.2145 5.91515 20.2876C6.09615 18.3839 6.44327 17.1726 7.03504 16.2069L4.37054 14.5741C3.42731 16.1133 3.00693 17.8594 2.80418 19.9918C2.60365 22.1009 2.60529 24.7453 2.60529 28.1249H5.73029ZM8.32536 10.6193C6.7135 11.6071 5.35829 12.9623 4.37054 14.5741L7.03504 16.2069C7.76512 15.0156 8.76679 14.0139 9.95817 13.2838L8.32536 10.6193ZM20.945 5.72906H32.1299V2.60406H20.945V5.72906ZM32.1299 5.72906C33.9334 5.72906 35.1222 5.73267 36.0039 5.85624C36.8337 5.97255 37.1565 6.16737 37.3668 6.38661L39.622 4.22339C38.7403 3.30419 37.6384 2.9298 36.4377 2.7615C35.2888 2.60046 33.8414 2.60406 32.1299 2.60406V5.72906ZM20.945 2.60406C17.4863 2.60406 14.7614 2.60174 12.5996 2.84591C10.4046 3.09385 8.60464 3.61177 7.06649 4.77684L8.95334 7.26791C9.86528 6.57717 11.0379 6.16719 12.9504 5.95117C14.8961 5.73139 17.4138 5.72906 20.945 5.72906V2.60406ZM5.73029 21.6575C5.73029 17.9804 5.73227 15.343 5.94444 13.3014C6.15394 11.2854 6.55424 10.0349 7.2298 9.06549L4.66597 7.27876C3.56144 8.86369 3.07169 10.7121 2.83618 12.9784C2.60332 15.2191 2.60529 18.0472 2.60529 21.6575H5.73029ZM7.06649 4.77684C6.14291 5.47641 5.33331 6.32118 4.66597 7.27876L7.2298 9.06549C7.71226 8.37319 8.29437 7.76705 8.95334 7.26791L7.06649 4.77684ZM41.1469 10.6804C41.14 9.27064 41.1099 8.04902 40.9334 7.03629C40.7499 5.98381 40.3873 5.02126 39.622 4.22339L37.3668 6.38661C37.5613 6.58938 37.7367 6.89548 37.8548 7.57294C37.9798 8.29014 38.0149 9.25974 38.022 10.6958L41.1469 10.6804ZM2.60529 21.6575C2.60529 23.6901 2.56329 25.5503 2.60583 27.1254L5.72969 27.0411C5.68853 25.517 5.73029 23.8 5.73029 21.6575H2.60529ZM44.7927 30.9185H32.5769V34.0435H44.7927V30.9185ZM25.3326 26.7992C25.3326 30.8001 28.576 34.0435 32.5769 34.0435V30.9185C30.3018 30.9185 28.4576 29.0742 28.4576 26.7992H25.3326ZM28.4576 26.7992C28.4576 24.5241 30.3018 22.6799 32.5769 22.6799V19.5549C28.576 19.5549 25.3326 22.7982 25.3326 26.7992H28.4576ZM38.2587 25.2367H32.5769V28.3617H38.2587V25.2367ZM28.1261 11.9791C31.0108 11.9791 33.2197 11.9797 35.0084 12.0901C36.7955 12.2004 38.0449 12.4154 39.0297 12.7894L40.1392 9.86796C38.7224 9.32989 37.1093 9.0888 35.2009 8.97104C33.2942 8.85339 30.9748 8.85407 28.1261 8.85407V11.9791ZM39.0297 12.7894C39.3986 12.9295 39.7324 13.0928 40.0441 13.2838L41.6769 10.6193C41.1906 10.3213 40.6805 10.0735 40.1392 9.86796L39.0297 12.7894ZM38.022 10.6881V11.3287H41.147V10.6881H38.022ZM32.5769 22.6799H45.7186V19.5549H32.5769V22.6799ZM47.397 28.1249C47.397 25.2614 47.3976 22.9326 47.2781 21.0199L44.1592 21.2148C44.2713 23.0081 44.272 25.225 44.272 28.1249H47.397ZM47.2781 21.0199C47.1147 18.4057 46.7192 16.3488 45.6317 14.5741L42.9672 16.2069C43.6524 17.3251 44.006 18.7646 44.1592 21.2148L47.2781 21.0199ZM44.272 28.1249C44.272 29.7656 44.2719 31.192 44.2509 32.4551L47.3755 32.5069C47.397 31.2127 47.397 29.7581 47.397 28.1249H44.272ZM44.2509 32.4551C44.1832 36.5354 43.8833 38.548 42.9672 40.0429L45.6317 41.6757C47.0488 39.3633 47.3088 36.5233 47.3755 32.5069L44.2509 32.4551ZM44.7927 34.0435H45.8132V30.9185H44.7927V34.0435Z" fill="#FF9900"/>
</svg>
