<svg width="52" height="56" viewBox="0 0 52 56" fill="none" xmlns="http://www.w3.org/2000/svg">
<path d="M36.6154 12.9231L25.8462 2.15384M25.8462 2.15384L15.0769 12.9231M25.8462 2.15384L25.8462 32.3077" stroke="#F4516C" stroke-width="4.30769" stroke-linecap="round" stroke-linejoin="round"/>
<path fill-rule="evenodd" clip-rule="evenodd" d="M10.7692 20.0222C10.7692 18.5848 9.40953 17.5129 8.07402 18.0443C1.73806 20.5654 0 25.8062 0 35.9816C0 52.4666 4.56185 55.9999 25.8462 55.9999C47.1305 55.9999 51.6923 52.4666 51.6923 35.9816C51.6923 25.8062 49.9542 20.5654 43.6183 18.0443C42.2828 17.5129 40.9231 18.5848 40.9231 20.0222C40.9231 20.9967 41.5711 21.8327 42.4609 22.2303C43.1357 22.5318 43.6749 22.8569 44.1131 23.1963C46.1331 24.7608 47.3846 27.746 47.3846 35.9816C47.3846 44.2173 46.1331 47.2025 44.1131 48.767C42.9856 49.6403 41.1897 50.4188 38.1332 50.945C35.0779 51.4709 31.0928 51.6922 25.8462 51.6922C20.5995 51.6922 16.6144 51.4709 13.5591 50.945C10.5026 50.4188 8.70674 49.6403 7.5792 48.767C5.55923 47.2025 4.30769 44.2173 4.30769 35.9816C4.30769 27.746 5.55923 24.7608 7.5792 23.1963C8.01741 22.8569 8.55657 22.5318 9.23144 22.2303C10.1212 21.8327 10.7692 20.9967 10.7692 20.0222Z" fill="#F4516C"/>
</svg>
