<svg width="16" height="16" viewBox="0 0 16 16" fill="none" xmlns="http://www.w3.org/2000/svg">
<path d="M10.4097 7.84166L10.3461 8.2429L10.4097 7.84166ZM8.15834 5.59034L7.7571 5.6539V5.6539L8.15834 5.59034ZM2.74142 13.8578L2.9802 13.5291L2.74142 13.8578ZM2.14225 13.2586L2.47091 13.0198L2.14225 13.2586ZM10.8578 13.2586L10.5291 13.0198L10.8578 13.2586ZM10.2586 13.8578L10.0198 13.5291L10.2586 13.8578ZM10.2586 5.14225L10.4974 4.81358L10.2586 5.14225ZM10.8578 5.74142L11.1864 5.50263L10.8578 5.74142ZM2.74142 5.14225L2.9802 5.47091L2.74142 5.14225ZM2.14225 5.74142L2.47091 5.9802L2.14225 5.74142ZM8.125 4.64067L8.13891 4.23466L8.125 4.64067ZM11.3593 7.875L11.7653 7.86109L11.3593 7.875ZM4.33333 10.1771C4.10897 10.1771 3.92708 10.359 3.92708 10.5833C3.92708 10.8077 4.10897 10.9896 4.33333 10.9896V10.1771ZM8.66667 10.9896C8.89103 10.9896 9.07292 10.8077 9.07292 10.5833C9.07292 10.359 8.89103 10.1771 8.66667 10.1771V10.9896ZM4.33333 8.01042C4.10897 8.01042 3.92708 8.1923 3.92708 8.41667C3.92708 8.64103 4.10897 8.82292 4.33333 8.82292V8.01042ZM5.95833 8.82292C6.1827 8.82292 6.36458 8.64103 6.36458 8.41667C6.36458 8.1923 6.1827 8.01042 5.95833 8.01042V8.82292ZM10.4732 7.44041C9.48816 7.28439 8.71561 6.51184 8.55959 5.52679L7.7571 5.6539C7.96818 6.9866 9.0134 8.03182 10.3461 8.2429L10.4732 7.44041ZM6.5 13.9688C5.4754 13.9688 4.73958 13.9682 4.16977 13.9065C3.60757 13.8455 3.25537 13.729 2.9802 13.5291L2.50263 14.1864C2.93939 14.5037 3.45093 14.6458 4.08226 14.7142C4.70599 14.7818 5.4935 14.7812 6.5 14.7812V13.9688ZM1.21875 9.5C1.21875 10.5065 1.21819 11.294 1.28577 11.9177C1.35417 12.5491 1.49626 13.0606 1.81358 13.4974L2.47091 13.0198C2.27099 12.7446 2.15445 12.3924 2.09354 11.8302C2.03181 11.2604 2.03125 10.5246 2.03125 9.5H1.21875ZM2.9802 13.5291C2.78477 13.3871 2.6129 13.2152 2.47091 13.0198L1.81358 13.4974C2.00569 13.7618 2.23822 13.9943 2.50263 14.1864L2.9802 13.5291ZM10.9688 9.5C10.9688 10.5246 10.9682 11.2604 10.9065 11.8302C10.8455 12.3924 10.729 12.7446 10.5291 13.0198L11.1864 13.4974C11.5037 13.0606 11.6458 12.5491 11.7142 11.9177C11.7818 11.294 11.7812 10.5065 11.7812 9.5H10.9688ZM6.5 14.7812C7.5065 14.7812 8.29401 14.7818 8.91774 14.7142C9.54908 14.6458 10.0606 14.5037 10.4974 14.1864L10.0198 13.5291C9.74463 13.729 9.39243 13.8455 8.83023 13.9065C8.26042 13.9682 7.5246 13.9688 6.5 13.9688V14.7812ZM10.5291 13.0198C10.3871 13.2152 10.2152 13.3871 10.0198 13.5291L10.4974 14.1864C10.7618 13.9943 10.9943 13.7618 11.1864 13.4974L10.5291 13.0198ZM10.0198 5.47091C10.2152 5.6129 10.3871 5.78477 10.5291 5.9802L11.1864 5.50263C10.9943 5.23822 10.7618 5.00569 10.4974 4.81358L10.0198 5.47091ZM6.5 4.21875C5.4935 4.21875 4.70599 4.21819 4.08226 4.28577C3.45093 4.35417 2.93939 4.49626 2.50263 4.81358L2.9802 5.47091C3.25537 5.27099 3.60757 5.15445 4.16977 5.09354C4.73958 5.03181 5.4754 5.03125 6.5 5.03125V4.21875ZM2.03125 9.5C2.03125 8.4754 2.03181 7.73958 2.09354 7.16977C2.15445 6.60757 2.27099 6.25537 2.47091 5.9802L1.81358 5.50263C1.49626 5.93939 1.35417 6.45093 1.28577 7.08226C1.21819 7.70599 1.21875 8.4935 1.21875 9.5H2.03125ZM2.50263 4.81358C2.23822 5.00569 2.00569 5.23822 1.81358 5.50263L2.47091 5.9802C2.6129 5.78477 2.78477 5.6129 2.9802 5.47091L2.50263 4.81358ZM6.5 5.03125C7.13542 5.03125 7.66217 5.0313 8.11109 5.04668L8.13891 4.23466C7.67312 4.2187 7.13092 4.21875 6.5 4.21875V5.03125ZM8.11109 5.04668C9.11584 5.08111 9.63762 5.19324 10.0198 5.47091L10.4974 4.81358C9.89956 4.37924 9.15369 4.26943 8.13891 4.23466L8.11109 5.04668ZM7.71875 4.64067C7.71875 5.11857 7.71786 5.40616 7.7571 5.6539L8.55959 5.52679C8.53284 5.35786 8.53125 5.14834 8.53125 4.64067L7.71875 4.64067ZM11.7812 9.5C11.7812 8.86908 11.7813 8.32688 11.7653 7.86109L10.9533 7.88891C10.9687 8.33783 10.9688 8.86458 10.9688 9.5H11.7812ZM11.7653 7.86109C11.7306 6.84631 11.6208 6.10044 11.1864 5.50263L10.5291 5.9802C10.8068 6.36237 10.9189 6.88416 10.9533 7.88891L11.7653 7.86109ZM11.3593 7.46875C10.8517 7.46875 10.6421 7.46716 10.4732 7.44041L10.3461 8.2429C10.5938 8.28214 10.8814 8.28125 11.3593 8.28125L11.3593 7.46875ZM4.33333 10.9896H8.66667V10.1771H4.33333V10.9896ZM4.33333 8.82292H5.95833V8.01042H4.33333V8.82292Z" fill="white"/>
<path d="M10.614 7.97403C9.12902 7.76953 8.37727 6.4008 8.09853 5.42933C8.08617 5.38627 8 5.39615 8 5.44095C8 5.46808 7.97145 5.48573 7.94719 5.47359L7.12732 5.06366C7.04359 5.0218 6.95126 5 6.85765 5H5.38516C5.13073 5 4.87862 5.04855 4.64238 5.14305L3.57359 5.57056C2.90937 5.83625 2.43765 6.43648 2.33648 7.14467L2.03788 9.23486C2.01274 9.41083 2.01117 9.58938 2.03322 9.76577L2.30432 11.9345C2.41907 12.8526 3.14849 13.5721 4.06801 13.6742L6.60847 13.9565C6.86701 13.9852 7.12866 13.9632 7.37878 13.8918L9.19447 13.373C9.98259 13.1478 10.5535 12.4646 10.6351 11.649L10.9615 8.38486C10.9821 8.1788 10.8192 8.00228 10.614 7.97403Z" fill="white" stroke="white"/>
<path d="M12.4097 5.84166L12.3461 6.2429L12.4097 5.84166ZM10.1583 3.59034L9.7571 3.6539V3.6539L10.1583 3.59034ZM4.74142 11.8578L4.9802 11.5291L4.74142 11.8578ZM4.14225 11.2586L4.47091 11.0198L4.14225 11.2586ZM12.8578 11.2586L12.5291 11.0198L12.8578 11.2586ZM12.2586 11.8578L12.0198 11.5291L12.2586 11.8578ZM12.2586 3.14225L12.4974 2.81358L12.2586 3.14225ZM12.8578 3.74142L13.1864 3.50263L12.8578 3.74142ZM4.74142 3.14225L4.9802 3.47091L4.74142 3.14225ZM4.14225 3.74142L4.47091 3.9802L4.14225 3.74142ZM10.125 2.64067L10.1389 2.23466L10.125 2.64067ZM13.3593 5.875L13.7653 5.86109L13.3593 5.875ZM6.33333 8.17708C6.10897 8.17708 5.92708 8.35897 5.92708 8.58333C5.92708 8.8077 6.10897 8.98958 6.33333 8.98958V8.17708ZM10.6667 8.98958C10.891 8.98958 11.0729 8.8077 11.0729 8.58333C11.0729 8.35897 10.891 8.17708 10.6667 8.17708V8.98958ZM6.33333 6.01042C6.10897 6.01042 5.92708 6.1923 5.92708 6.41667C5.92708 6.64103 6.10897 6.82292 6.33333 6.82292V6.01042ZM7.95833 6.82292C8.1827 6.82292 8.36458 6.64103 8.36458 6.41667C8.36458 6.1923 8.1827 6.01042 7.95833 6.01042V6.82292ZM12.4732 5.44041C11.4882 5.28439 10.7156 4.51184 10.5596 3.52679L9.7571 3.6539C9.96818 4.9866 11.0134 6.03182 12.3461 6.2429L12.4732 5.44041ZM8.5 11.9688C7.4754 11.9688 6.73958 11.9682 6.16977 11.9065C5.60757 11.8455 5.25537 11.729 4.9802 11.5291L4.50263 12.1864C4.93939 12.5037 5.45093 12.6458 6.08226 12.7142C6.70599 12.7818 7.4935 12.7812 8.5 12.7812V11.9688ZM3.21875 7.5C3.21875 8.5065 3.21819 9.29401 3.28577 9.91774C3.35417 10.5491 3.49626 11.0606 3.81358 11.4974L4.47091 11.0198C4.27099 10.7446 4.15445 10.3924 4.09354 9.83023C4.03181 9.26042 4.03125 8.5246 4.03125 7.5H3.21875ZM4.9802 11.5291C4.78477 11.3871 4.6129 11.2152 4.47091 11.0198L3.81358 11.4974C4.00569 11.7618 4.23822 11.9943 4.50263 12.1864L4.9802 11.5291ZM12.9688 7.5C12.9688 8.5246 12.9682 9.26042 12.9065 9.83023C12.8455 10.3924 12.729 10.7446 12.5291 11.0198L13.1864 11.4974C13.5037 11.0606 13.6458 10.5491 13.7142 9.91774C13.7818 9.29401 13.7812 8.5065 13.7812 7.5H12.9688ZM8.5 12.7812C9.5065 12.7812 10.294 12.7818 10.9177 12.7142C11.5491 12.6458 12.0606 12.5037 12.4974 12.1864L12.0198 11.5291C11.7446 11.729 11.3924 11.8455 10.8302 11.9065C10.2604 11.9682 9.5246 11.9688 8.5 11.9688V12.7812ZM12.5291 11.0198C12.3871 11.2152 12.2152 11.3871 12.0198 11.5291L12.4974 12.1864C12.7618 11.9943 12.9943 11.7618 13.1864 11.4974L12.5291 11.0198ZM12.0198 3.47091C12.2152 3.6129 12.3871 3.78477 12.5291 3.9802L13.1864 3.50263C12.9943 3.23822 12.7618 3.00569 12.4974 2.81358L12.0198 3.47091ZM8.5 2.21875C7.4935 2.21875 6.70599 2.21819 6.08226 2.28577C5.45093 2.35417 4.93939 2.49626 4.50263 2.81358L4.9802 3.47091C5.25537 3.27099 5.60757 3.15445 6.16977 3.09354C6.73958 3.03181 7.4754 3.03125 8.5 3.03125V2.21875ZM4.03125 7.5C4.03125 6.4754 4.03181 5.73958 4.09354 5.16977C4.15445 4.60757 4.27099 4.25537 4.47091 3.9802L3.81358 3.50263C3.49626 3.93939 3.35417 4.45093 3.28577 5.08226C3.21819 5.70599 3.21875 6.4935 3.21875 7.5H4.03125ZM4.50263 2.81358C4.23822 3.00569 4.00569 3.23822 3.81358 3.50263L4.47091 3.9802C4.6129 3.78477 4.78477 3.6129 4.9802 3.47091L4.50263 2.81358ZM8.5 3.03125C9.13542 3.03125 9.66217 3.0313 10.1111 3.04668L10.1389 2.23466C9.67312 2.2187 9.13092 2.21875 8.5 2.21875V3.03125ZM10.1111 3.04668C11.1158 3.08111 11.6376 3.19324 12.0198 3.47091L12.4974 2.81358C11.8996 2.37924 11.1537 2.26943 10.1389 2.23466L10.1111 3.04668ZM9.71875 2.64067C9.71875 3.11857 9.71786 3.40616 9.7571 3.6539L10.5596 3.52679C10.5328 3.35786 10.5313 3.14834 10.5312 2.64067L9.71875 2.64067ZM13.7812 7.5C13.7812 6.86908 13.7813 6.32688 13.7653 5.86109L12.9533 5.88891C12.9687 6.33783 12.9688 6.86458 12.9688 7.5H13.7812ZM13.7653 5.86109C13.7306 4.84631 13.6208 4.10044 13.1864 3.50263L12.5291 3.9802C12.8068 4.36237 12.9189 4.88416 12.9533 5.88891L13.7653 5.86109ZM13.3593 5.46875C12.8517 5.46875 12.6421 5.46716 12.4732 5.44041L12.3461 6.2429C12.5938 6.28214 12.8814 6.28125 13.3593 6.28125L13.3593 5.46875ZM6.33333 8.98958H10.6667V8.17708H6.33333V8.98958ZM6.33333 6.82292H7.95833V6.01042H6.33333V6.82292Z" fill="#5867DD"/>
<path d="M12.614 5.97403C11.129 5.76953 10.3773 4.4008 10.0985 3.42933C10.0862 3.38627 10 3.39615 10 3.44095C10 3.46808 9.97145 3.48573 9.94719 3.47359L9.12732 3.06366C9.04359 3.0218 8.95126 3 8.85765 3H7.38516C7.13073 3 6.87862 3.04855 6.64238 3.14305L5.57359 3.57056C4.90937 3.83625 4.43765 4.43648 4.33648 5.14467L4.03788 7.23486C4.01274 7.41083 4.01117 7.58938 4.03322 7.76577L4.30432 9.93453C4.41907 10.8526 5.14849 11.5721 6.06801 11.6742L8.60847 11.9565C8.86701 11.9852 9.12866 11.9632 9.37878 11.8918L11.1945 11.373C11.9826 11.1478 12.5535 10.4646 12.6351 9.64897L12.9615 6.38486C12.9821 6.1788 12.8192 6.00228 12.614 5.97403Z" fill="#5867DD" stroke="#5867DD"/>
<path d="M12.5093 5.74156L12.4457 6.14281L12.5093 5.74156ZM10.258 3.49025L9.85671 3.5538V3.5538L10.258 3.49025ZM4.84102 11.7577L5.07981 11.429L4.84102 11.7577ZM4.24185 11.1585L4.57052 10.9197L4.24185 11.1585ZM12.9574 11.1585L12.6287 10.9197L12.9574 11.1585ZM12.3582 11.7577L12.1194 11.429L12.3582 11.7577ZM12.3582 3.04215L12.597 2.71348L12.3582 3.04215ZM12.9574 3.64132L13.286 3.40253L12.9574 3.64132ZM4.84102 3.04215L5.07981 3.37081L4.84102 3.04215ZM4.24185 3.64132L4.57052 3.88011L4.24185 3.64132ZM10.2246 2.54057L10.2385 2.13456L10.2246 2.54057ZM13.4589 5.7749L13.865 5.76099L13.4589 5.7749ZM6.43294 8.07699C6.20858 8.07699 6.02669 8.25887 6.02669 8.48324C6.02669 8.7076 6.20858 8.88949 6.43294 8.88949V8.07699ZM10.7663 8.88949C10.9906 8.88949 11.1725 8.7076 11.1725 8.48324C11.1725 8.25887 10.9906 8.07699 10.7663 8.07699V8.88949ZM6.43294 5.91032C6.20858 5.91032 6.02669 6.0922 6.02669 6.31657C6.02669 6.54094 6.20858 6.72282 6.43294 6.72282V5.91032ZM8.05794 6.72282C8.28231 6.72282 8.46419 6.54094 8.46419 6.31657C8.46419 6.0922 8.28231 5.91032 8.05794 5.91032V6.72282ZM12.5728 5.34031C11.5878 5.18429 10.8152 4.41174 10.6592 3.42669L9.85671 3.5538C10.0678 4.8865 11.113 5.93173 12.4457 6.14281L12.5728 5.34031ZM8.59961 11.8687C7.57501 11.8687 6.83919 11.8681 6.26938 11.8064C5.70718 11.7455 5.35498 11.6289 5.07981 11.429L4.60224 12.0863C5.039 12.4036 5.55053 12.5457 6.18187 12.6141C6.8056 12.6817 7.59311 12.6812 8.59961 12.6812V11.8687ZM3.31836 7.3999C3.31836 8.40641 3.3178 9.19392 3.38538 9.81765C3.45378 10.449 3.59587 10.9605 3.91319 11.3973L4.57052 10.9197C4.3706 10.6445 4.25406 10.2923 4.19315 9.73013C4.13142 9.16032 4.13086 8.4245 4.13086 7.3999H3.31836ZM5.07981 11.429C4.88438 11.287 4.71251 11.1151 4.57052 10.9197L3.91319 11.3973C4.1053 11.6617 4.33782 11.8942 4.60224 12.0863L5.07981 11.429ZM13.0684 7.3999C13.0684 8.4245 13.0678 9.16032 13.0061 9.73013C12.9452 10.2923 12.8286 10.6445 12.6287 10.9197L13.286 11.3973C13.6034 10.9605 13.7454 10.449 13.8138 9.81765C13.8814 9.19392 13.8809 8.40641 13.8809 7.3999H13.0684ZM8.59961 12.6812C9.60611 12.6812 10.3936 12.6817 11.0174 12.6141C11.6487 12.5457 12.1602 12.4036 12.597 12.0863L12.1194 11.429C11.8442 11.6289 11.492 11.7455 10.9298 11.8064C10.36 11.8681 9.62421 11.8687 8.59961 11.8687V12.6812ZM12.6287 10.9197C12.4867 11.1151 12.3148 11.287 12.1194 11.429L12.597 12.0863C12.8614 11.8942 13.0939 11.6617 13.286 11.3973L12.6287 10.9197ZM12.1194 3.37081C12.3148 3.5128 12.4867 3.68467 12.6287 3.88011L13.286 3.40253C13.0939 3.13812 12.8614 2.90559 12.597 2.71348L12.1194 3.37081ZM8.59961 2.11865C7.59311 2.11865 6.8056 2.11809 6.18187 2.18567C5.55053 2.25407 5.039 2.39616 4.60224 2.71348L5.07981 3.37081C5.35498 3.17089 5.70718 3.05436 6.26938 2.99344C6.83919 2.93171 7.57501 2.93115 8.59961 2.93115V2.11865ZM4.13086 7.3999C4.13086 6.3753 4.13142 5.63948 4.19315 5.06968C4.25406 4.50747 4.3706 4.15527 4.57052 3.88011L3.91319 3.40253C3.59587 3.83929 3.45378 4.35083 3.38538 4.98216C3.3178 5.60589 3.31836 6.3934 3.31836 7.3999H4.13086ZM4.60224 2.71348C4.33783 2.90559 4.1053 3.13812 3.91319 3.40253L4.57052 3.88011C4.71251 3.68467 4.88438 3.5128 5.07981 3.37081L4.60224 2.71348ZM8.59961 2.93115C9.23503 2.93115 9.76178 2.9312 10.2107 2.94658L10.2385 2.13456C9.77273 2.1186 9.23053 2.11865 8.59961 2.11865V2.93115ZM10.2107 2.94658C11.2155 2.98101 11.7372 3.09315 12.1194 3.37081L12.597 2.71348C11.9992 2.27915 11.2533 2.16933 10.2385 2.13456L10.2107 2.94658ZM9.81836 2.54057C9.81836 3.01847 9.81747 3.30606 9.85671 3.5538L10.6592 3.42669C10.6324 3.25777 10.6309 3.04825 10.6309 2.54057L9.81836 2.54057ZM13.8809 7.3999C13.8809 6.76898 13.8809 6.22678 13.865 5.76099L13.0529 5.78881C13.0683 6.23773 13.0684 6.76449 13.0684 7.3999H13.8809ZM13.865 5.76099C13.8302 4.74621 13.7204 4.00035 13.286 3.40253L12.6287 3.88011C12.9064 4.26228 13.0185 4.78406 13.0529 5.78881L13.865 5.76099ZM13.4589 5.36865C12.9513 5.36865 12.7417 5.36707 12.5728 5.34031L12.4457 6.14281C12.6934 6.18204 12.981 6.18115 13.4589 6.18115L13.4589 5.36865ZM6.43294 8.88949H10.7663V8.07699H6.43294V8.88949ZM6.43294 6.72282H8.05794V5.91032H6.43294V6.72282Z" fill="white"/>
<path d="M12.7136 5.87393C11.2286 5.66943 10.4769 4.3007 10.1981 3.32924C10.1858 3.28618 10.0996 3.29606 10.0996 3.34085C10.0996 3.36798 10.0711 3.38563 10.0468 3.37349L9.22693 2.96356C9.1432 2.9217 9.05087 2.8999 8.95726 2.8999H7.48477C7.23034 2.8999 6.97823 2.94845 6.74199 3.04295L5.6732 3.47047C5.00898 3.73615 4.53726 4.33638 4.43608 5.04457L4.13749 7.13476C4.11235 7.31074 4.11078 7.48928 4.13283 7.66567L4.40393 9.83443C4.51868 10.7525 5.2481 11.472 6.16762 11.5741L8.70808 11.8564C8.96662 11.8851 9.22827 11.8631 9.47839 11.7917L11.2941 11.2729C12.0822 11.0477 12.6532 10.3645 12.7347 9.54887L13.0611 6.28476C13.0817 6.07871 12.9188 5.90219 12.7136 5.87393Z" fill="white" stroke="white"/>
</svg>
