<svg width="25" height="25" viewBox="0 0 25 25" fill="none" xmlns="http://www.w3.org/2000/svg">
<circle cx="12.5" cy="12.5" r="11.5" stroke="white" stroke-width="2"/>
<path d="M12.9018 10.772L13.0218 18.428H11.9298L12.0258 10.772L12.9018 10.772ZM12.5298 7.904C12.7018 7.904 12.8518 7.972 12.9798 8.108C13.1038 8.244 13.1698 8.42 13.1778 8.636C13.1818 8.788 13.1518 8.926 13.0878 9.05C13.0198 9.178 12.9318 9.278 12.8238 9.35C12.7118 9.426 12.5938 9.464 12.4698 9.464C12.2538 9.464 12.0918 9.392 11.9838 9.248C11.8718 9.104 11.8138 8.932 11.8098 8.732C11.8058 8.572 11.8378 8.43 11.9058 8.306C11.9698 8.182 12.0578 8.084 12.1698 8.012C12.2818 7.94 12.4018 7.904 12.5298 7.904Z" fill="white"/>
<path d="M12.9018 10.772L13.2018 10.7673L13.1971 10.472H12.9018V10.772ZM13.0218 18.428V18.728H13.3266L13.3218 18.4233L13.0218 18.428ZM11.9298 18.428L11.6298 18.4242L11.626 18.728H11.9298V18.428ZM12.0258 10.772L12.0258 10.472H11.7296L11.7258 10.7682L12.0258 10.772ZM12.9798 8.108L13.2015 7.90585L13.1983 7.90239L12.9798 8.108ZM13.1778 8.636L13.4777 8.62811L13.4776 8.6249L13.1778 8.636ZM13.0878 9.05L13.3528 9.19076L13.3544 9.18759L13.0878 9.05ZM12.8238 9.35L12.6574 9.10038L12.6554 9.10176L12.8238 9.35ZM11.9838 9.248L12.2238 9.06797L12.2206 9.06382L11.9838 9.248ZM11.8098 8.732L12.1098 8.726L12.1097 8.7245L11.8098 8.732ZM11.9058 8.306L12.1689 8.4503L12.1724 8.44359L11.9058 8.306ZM12.1698 8.012L12.0076 7.75965L12.1698 8.012ZM12.6018 10.7767L12.7218 18.4327L13.3218 18.4233L13.2018 10.7673L12.6018 10.7767ZM13.0218 18.128H11.9298V18.728H13.0218V18.128ZM12.2298 18.4318L12.3258 10.7758L11.7258 10.7682L11.6298 18.4242L12.2298 18.4318ZM12.0258 11.072L12.9018 11.072L12.9018 10.472L12.0258 10.472L12.0258 11.072ZM12.5298 8.204C12.6115 8.204 12.6846 8.23209 12.7614 8.31361L13.1983 7.90239C13.019 7.71191 12.7921 7.604 12.5298 7.604L12.5298 8.204ZM12.7581 8.31013C12.8262 8.38482 12.8722 8.48901 12.878 8.6471L13.4776 8.6249C13.4675 8.351 13.3814 8.10318 13.2015 7.90587L12.7581 8.31013ZM12.8779 8.64389C12.8807 8.75001 12.86 8.83728 12.8212 8.91241L13.3544 9.18759C13.4436 9.01472 13.4829 8.82599 13.4777 8.62811L12.8779 8.64389ZM12.8229 8.90925C12.7754 8.99857 12.7194 9.05905 12.6574 9.10039L12.9902 9.59962C13.1442 9.49695 13.2642 9.35743 13.3527 9.19075L12.8229 8.90925ZM12.6554 9.10176C12.5883 9.14726 12.5282 9.164 12.4698 9.164V9.764C12.6594 9.764 12.8353 9.70474 12.9923 9.59824L12.6554 9.10176ZM12.4698 9.164C12.327 9.164 12.2635 9.12095 12.2238 9.068L11.7438 9.428C11.9201 9.66305 12.1806 9.764 12.4698 9.764V9.164ZM12.2206 9.06382C12.1522 8.97583 12.1126 8.86794 12.1098 8.726L11.5099 8.738C11.515 8.99606 11.5914 9.23218 11.747 9.43218L12.2206 9.06382ZM12.1097 8.7245C12.1069 8.61034 12.1295 8.52195 12.1689 8.45025L11.6428 8.16175C11.5461 8.33806 11.5048 8.53366 11.5099 8.7395L12.1097 8.7245ZM12.1724 8.44359C12.2135 8.364 12.2664 8.30652 12.332 8.26435L12.0076 7.75965C11.8492 7.86148 11.7261 8 11.6392 8.16841L12.1724 8.44359ZM12.332 8.26435C12.3977 8.22214 12.4617 8.204 12.5298 8.204L12.5298 7.604C12.3419 7.604 12.1659 7.65786 12.0076 7.75965L12.332 8.26435Z" fill="white"/>
</svg>
